HIERARCHY
ROOT Hips
{
	OFFSET 0.000000 0.000000 0.000000
	CHANNELS 6 Xposition Yposition Zposition Zrotation Yrotation Xrotation 
	JOINT LowerBack
	{
		OFFSET 0.000000 0.000000 0.000000
		CHANNELS 3 Zrotation Yrotation Xrotation
		JOINT Spine
		{
			OFFSET 0.028270 2.035590 -0.193380
			CHANNELS 3 Zrotation Yrotation Xrotation
			JOINT Spine1
			{
				OFFSET 0.056720 2.048850 -0.042750
				CHANNELS 3 Zrotation Yrotation Xrotation
				JOINT Neck
				{
					OFFSET 0.000000 0.000000 0.000000
					CHANNELS 3 Zrotation Yrotation Xrotation
					JOINT Neck1
					{
						OFFSET -0.054170 1.746240 0.172020
						CHANNELS 3 Zrotation Yrotation Xrotation
						JOINT Head
						{
							OFFSET 0.104070 1.761360 -0.123970
							CHANNELS 3 Zrotation Yrotation Xrotation
							End Site
							{
								OFFSET 0.000000 0.000000 0.000000
							}
						}
					}
				}
				JOINT LeftShoulder
				{
					OFFSET 0.000000 0.000000 0.000000
					CHANNELS 3 Zrotation Yrotation Xrotation
					JOINT LeftArm
					{
						OFFSET 3.362410 1.200890 -0.311210
						CHANNELS 3 Zrotation Yrotation Xrotation
						JOINT LeftForeArm
						{
							OFFSET 4.983000 -0.000000 -0.000000
							CHANNELS 3 Zrotation Yrotation Xrotation
							JOINT LeftHand
							{
								OFFSET 3.483560 -0.000000 -0.000000
								CHANNELS 3 Zrotation Yrotation Xrotation
								JOINT LeftFingerBase
								{
									OFFSET 0.000000 0.000000 0.000000
									CHANNELS 3 Zrotation Yrotation Xrotation
									JOINT LeftHandIndex1
									{
										OFFSET 0.715260 -0.000000 -0.000000
										CHANNELS 3 Zrotation Yrotation Xrotation
										End Site
										{
											OFFSET 0.000000 0.000000 0.000000
										}
									}
								}
								JOINT LThumb
								{
									OFFSET 0.000000 0.000000 0.000000
									CHANNELS 3 Zrotation Yrotation Xrotation
									End Site
									{
										OFFSET 0.000000 0.000000 0.000000
									}
								}
							}
						}
					}
				}
				JOINT RightShoulder
				{
					OFFSET 0.000000 0.000000 0.000000
					CHANNELS 3 Zrotation Yrotation Xrotation
					JOINT RightArm
					{
						OFFSET -3.136600 1.374050 -0.404650
						CHANNELS 3 Zrotation Yrotation Xrotation
						JOINT RightForeArm
						{
							OFFSET -5.241900 -0.000000 -0.000000
							CHANNELS 3 Zrotation Yrotation Xrotation
							JOINT RightHand
							{
								OFFSET -3.444170 -0.000000 -0.000000
								CHANNELS 3 Zrotation Yrotation Xrotation
								JOINT RightFingerBase
								{
									OFFSET 0.000000 0.000000 0.000000
									CHANNELS 3 Zrotation Yrotation Xrotation
									JOINT RightHandIndex1
									{
										OFFSET -0.622530 -0.000000 -0.000000
										CHANNELS 3 Zrotation Yrotation Xrotation
										End Site
										{
											OFFSET 0.000000 0.000000 0.000000
										}
									}
								}
								JOINT RThumb
								{
									OFFSET 0.000000 0.000000 0.000000
									CHANNELS 3 Zrotation Yrotation Xrotation
									End Site
									{
										OFFSET 0.000000 0.000000 0.000000
									}
								}
							}
						}
					}
				}
			}
		}
	}
}
}
MOTION
Frames: 6
Frame Time: 0.008333
26.442931 17.461010 2.433273 149.308119 -80.881816 -122.400235 -6.357054 2.862174 -8.852059 -1.484025 3.220118 -4.745611 -2.791408 2.866377 0.742793 1.003488 -7.440579 -9.742909 -0.121769 0.014794 -0.513998 0.000000 0.000000 0.000000 4.298415 25.109637 3.113212 -45.607128 43.387783 -25.746104 -3.950354 -4.455205 0.012651 17.007556 -1.632012 -0.247777 -0.360629 -0.007351 -0.000000 0.000000 0.000000 0.000000 0.000000 0.000000 0.000000 -8.412897 -2.730181 -4.179425 13.826090 31.620233 -69.411303 0.900124 89.366214 -0.286536 -22.626992 12.303622 -2.665129 0.158785 -0.850877 -0.000000 0.000000 0.000000 0.000000 0.000000 0.000000 0.000000 
26.206000 17.590019 2.436721 147.334022 -81.054089 -120.520345 -6.741118 2.954249 -9.087704 -1.549657 3.356138 -4.787841 -2.701795 2.997173 0.790047 0.815309 -7.652730 -9.619699 0.014003 0.023988 -0.472515 0.000000 0.000000 0.000000 4.615067 25.324605 3.108066 -45.366498 43.855830 -26.633949 -3.903508 -4.445986 0.010292 17.358645 -1.383898 -0.214792 -0.366883 -0.004121 -0.000000 0.000000 0.000000 0.000000 0.000000 0.000000 0.000000 -9.228622 -3.086370 -4.403232 13.916417 31.897935 -70.582378 -178.905720 89.238137 179.705957 -23.060188 12.379398 -2.735584 0.165084 -0.859556 -0.000000 0.000000 0.000000 0.000000 0.000000 0.000000 0.000000 
25.972928 17.710309 2.441034 145.521347 -81.256213 -118.814070 -7.074070 3.038187 -9.270031 -1.600749 3.480635 -4.819023 -2.604368 3.117791 0.830700 0.617254 -7.871775 -9.511546 0.153863 0.033842 -0.436624 0.000000 0.000000 0.000000 4.931226 25.517486 3.121787 -45.341019 44.309012 -27.344472 -3.873531 -4.629252 0.007701 17.489649 -1.106279 -0.173405 -0.371627 -0.001153 -0.000000 0.000000 0.000000 0.000000 0.000000 0.000000 0.000000 -10.070854 -3.446160 -4.617715 14.058368 32.222295 -71.623591 -178.709792 87.900989 179.698328 -23.517137 12.445746 -2.807638 0.172523 -0.868041 -0.000000 0.000000 0.000000 0.000000 0.000000 0.000000 0.000000 
25.743801 17.820868 2.446436 143.895092 -81.496097 -117.303070 -7.347306 3.115755 -9.401903 -1.634772 3.594037 -4.839351 -2.497202 3.228457 0.864570 0.406519 -8.090901 -9.421206 0.298626 0.044457 -0.407054 0.000000 0.000000 0.000000 5.225365 25.701986 3.153043 -45.516171 44.742822 -27.876382 -3.862012 -5.012801 0.004892 17.386137 -0.792301 -0.123815 -0.374697 0.001511 -0.000000 0.000000 0.000000 0.000000 0.000000 0.000000 0.000000 -10.946696 -3.798919 -4.821691 14.245926 32.563397 -72.523749 -178.513669 86.626538 179.690307 -24.030669 12.507727 -2.886689 0.181714 -0.876331 -0.000000 0.000000 0.000000 0.000000 0.000000 0.000000 0.000000 
25.518654 17.920695 2.453187 142.465515 -81.778634 -115.988362 -7.556604 3.187266 -9.491913 -1.650493 3.695819 -4.850156 -2.379225 3.328399 0.892747 0.182829 -8.300634 -9.350549 0.448377 0.055855 -0.384240 0.000000 0.000000 0.000000 5.474328 25.895175 3.199718 -45.862140 45.147097 -28.240380 -3.868420 -5.587019 0.001939 17.053331 -0.445383 -0.068721 -0.375976 0.003869 -0.000000 0.000000 0.000000 0.000000 0.000000 0.000000 0.000000 -11.857879 -4.132229 -5.014416 14.473022 32.890594 -73.268961 -178.318812 85.419400 179.681582 -24.636506 12.572348 -2.978736 0.193273 -0.884384 -0.000000 0.000000 0.000000 0.000000 0.000000 0.000000 0.000000 
25.297207 18.008893 2.461237 141.195270 -82.102623 -114.831579 -7.708309 3.251145 -9.543328 -1.649169 3.784383 -4.851826 -2.250271 3.415834 0.917163 -0.050410 -8.487978 -9.300965 0.602831 0.068029 -0.368527 0.000000 0.000000 0.000000 5.663211 26.114548 3.260684 -46.348345 45.508307 -28.442410 -3.890457 -6.339384 -0.001105 16.522039 -0.062720 -0.010124 -0.375461 0.005847 -0.000000 0.000000 0.000000 0.000000 0.000000 0.000000 0.000000 -12.801504 -4.431809 -5.195208 14.736941 33.170240 -73.846723 -178.125289 84.274872 179.671894 -25.366782 12.649321 -3.090280 0.207692 -0.892165 -0.000000 0.000000 0.000000 0.000000 0.000000 0.000000 0.000000 
